<svg width="24" height="24" viewBox="0 0 24 24" fill="none" xmlns="http://www.w3.org/2000/svg">
<path d="M14.475 12.5258L10.85 16.1508C10.8 16.2008 10.7458 16.2383 10.6875 16.2633C10.6292 16.2883 10.5667 16.3008 10.5 16.3008C10.3667 16.3008 10.25 16.2549 10.15 16.1633C10.05 16.0716 10 15.9508 10 15.8008V8.20078C10 8.05078 10.05 7.92995 10.15 7.83828C10.25 7.74661 10.3667 7.70078 10.5 7.70078C10.5333 7.70078 10.65 7.75078 10.85 7.85078L14.475 11.4758C14.5583 11.5591 14.6167 11.6424 14.65 11.7258C14.6833 11.8091 14.7 11.9008 14.7 12.0008C14.7 12.1008 14.6833 12.1924 14.65 12.2758C14.6167 12.3591 14.5583 12.4424 14.475 12.5258Z" fill="#CCCCCC"/>
</svg>
