<svg width="32" height="32" viewBox="0 0 32 32" fill="none" xmlns="http://www.w3.org/2000/svg">
<g clip-path="url(#clip0_4959_28535)">
<path d="M24.2799 31.9995C25.3035 31.9995 26.0782 31.0664 25.8821 30.0615C24.9788 25.4274 20.8974 21.9297 15.9989 21.9297C11.1003 21.9297 7.01892 25.4274 6.11538 30.0615C5.91959 31.0664 6.69398 31.9995 7.71763 31.9995H24.2799Z" fill="#DCC4F5"/>
<path d="M13.9301 22.1445C9.98563 22.9685 6.88806 26.0983 6.11538 30.0613C5.91959 31.0661 6.69398 31.9992 7.71763 31.9992H15.3746C12.3759 30.0066 12.4629 24.2678 13.9301 22.1445Z" fill="#B690E0"/>
<path d="M19.4065 31.9999C19.4065 29.7853 17.8809 27.9902 15.9992 27.9902C14.1174 27.9902 12.5918 29.7853 12.5918 31.9999H19.4065Z" fill="#FFC700"/>
<path d="M13.4458 29.3457C12.9148 30.0527 12.5918 30.9814 12.5918 31.9994H15.3749C14.4619 31.3928 13.8349 30.4392 13.4458 29.3457Z" fill="#F58F36"/>
<path d="M6.58301 12.8168C6.30592 11.0097 4.61627 9.76924 2.80895 10.0466C1.00187 10.3237 -0.23857 12.0133 0.0387655 13.8206C0.315857 15.6277 2.0055 16.8679 3.81283 16.5908C5.6199 16.3137 6.86034 14.6238 6.58301 12.8168Z" fill="#FFD4BE"/>
<path d="M29.3075 10.0686C27.5114 9.7271 25.7783 10.9063 25.4368 12.7026C25.0953 14.4987 26.2747 16.2318 28.0708 16.5733C29.8671 16.9149 31.6 15.7355 31.9415 13.9394C32.283 12.143 31.1039 10.4102 29.3075 10.0686Z" fill="#FFBF9E"/>
<path d="M29.2441 13.3202C29.2441 20.6349 22.2506 25.4187 15.9996 25.4187C9.74833 25.4187 2.75488 20.6349 2.75488 13.3202C2.75488 6.00524 8.68488 1.5 15.9996 1.5C23.3143 1.5 29.2441 6.00524 29.2441 13.3202Z" fill="#FFD4BE"/>
<path d="M15.9996 25.418C17.7881 25.418 19.6372 25.0257 21.3662 24.2953C6.95911 23.6302 5.71476 9.79251 10.1389 2.57812C5.76407 4.3249 2.75488 8.10897 2.75488 13.3195C2.75488 20.6342 9.74833 25.418 15.9996 25.418Z" fill="#FFBF9E"/>
<path d="M23.3177 6.20026C24.1314 9.75582 26.125 11.6718 28.3832 12.725C28.9008 12.9664 29.5074 12.6288 29.5548 12.0595C30.0877 5.65096 24.2818 0 15.999 0C7.71633 0 1.91035 5.65096 2.44305 12.0595C2.49041 12.6288 3.09708 12.9664 3.61489 12.725C5.87288 11.6718 7.86647 9.75582 8.68041 6.20026H23.3177Z" fill="#4E5660"/>
<path d="M22.9337 1.51562C21.3715 3.07784 19.8093 4.6398 18.2471 6.20201H23.3177C23.7308 8.00689 24.4483 9.38844 25.3496 10.4499C26.7671 10.0539 28.0893 9.51026 29.2824 8.83011C28.489 5.74695 26.1978 3.08784 22.9337 1.51562Z" fill="#383C43"/>
<path d="M15.9993 0C22.7794 0 26.3906 2.30584 30.2464 5.29159C30.7616 5.69051 30.7601 6.47027 30.2425 6.86601C23.417 12.0839 11.4479 10.3747 8.68066 6.20026L15.9993 0Z" fill="#4E5660"/>
<path d="M19.8259 7.695C18.3601 7.695 16.8931 7.50872 15.4998 7.14155C13.8658 6.71065 12.6589 6.12034 12.1215 5.74559C11.9091 5.59765 11.8571 5.30542 12.0053 5.09302C12.1533 4.88087 12.4455 4.82887 12.6579 4.97681C13.5358 5.5891 17.0945 7.20942 21.7704 6.64058C22.028 6.60958 22.2609 6.79219 22.2921 7.04926C22.3234 7.30609 22.1405 7.53997 21.8834 7.57122C21.2033 7.65374 20.5146 7.695 19.8259 7.695Z" fill="#383C43"/>
<path d="M20.8667 5.22724C20.1077 5.22724 19.438 5.15254 19.0159 5.04854C18.7645 4.98653 18.6109 4.73263 18.6729 4.48117C18.7349 4.22972 18.9891 4.07616 19.2403 4.13841C20.1006 4.35032 22.039 4.39548 23.4401 3.92845C23.6857 3.84667 23.9511 3.97923 24.0331 4.22508C24.1149 4.47067 23.9821 4.73605 23.7365 4.81783C22.8376 5.11738 21.7866 5.22724 20.8667 5.22724Z" fill="#383C43"/>
<path d="M11.13 16.0973C11.13 14.8452 9.8551 13.8301 8.28263 13.8301C6.71017 13.8301 5.43555 14.8452 5.43555 16.0973C5.43555 17.3495 6.71017 18.3646 8.28263 18.3646C9.8551 18.3646 11.13 17.3495 11.13 16.0973Z" fill="#EDA1AB"/>
<path d="M26.5626 16.0973C26.5626 14.8452 25.2877 13.8301 23.7152 13.8301C22.1428 13.8301 20.8682 14.8452 20.8682 16.0973C20.8682 17.3495 22.1428 18.3646 23.7152 18.3646C25.2877 18.3646 26.5626 17.3495 26.5626 16.0973Z" fill="#EDA1AB"/>
<path d="M9.94237 14.3044C9.68334 14.3044 9.47363 14.0944 9.47363 13.8357V12.8301C9.47363 12.5713 9.68334 12.3613 9.94237 12.3613C10.2012 12.3613 10.4111 12.5713 10.4111 12.8301V13.8357C10.4111 14.0944 10.2012 14.3044 9.94237 14.3044Z" fill="#4E5660"/>
<path d="M22.0566 14.3044C21.7976 14.3044 21.5879 14.0944 21.5879 13.8357V12.8301C21.5879 12.5713 21.7976 12.3613 22.0566 12.3613C22.3154 12.3613 22.5254 12.5713 22.5254 12.8301V13.8357C22.5254 14.0944 22.3154 14.3044 22.0566 14.3044Z" fill="#4E5660"/>
<path d="M15.9992 15.0771C15.2517 15.0771 14.5408 14.7534 14.0489 14.1889C13.8789 13.9936 13.8992 13.6975 14.0943 13.5276C14.2896 13.3574 14.5855 13.3777 14.7556 13.573C15.0696 13.9331 15.5229 14.1396 15.9992 14.1396C16.4756 14.1396 16.9289 13.9331 17.2426 13.573C17.4128 13.3777 17.7089 13.3574 17.904 13.5276C18.0993 13.6975 18.1195 13.9936 17.9494 14.1889C17.4575 14.7534 16.7468 15.0771 15.9992 15.0771Z" fill="#4E5660"/>
</g>
<defs>
<clipPath id="clip0_4959_28535">
<rect width="32" height="32" fill="white"/>
</clipPath>
</defs>
</svg>
