<svg width="24" height="24" viewBox="0 0 24 24" fill="none" xmlns="http://www.w3.org/2000/svg">
<path d="M17.5996 5.43848C17.88 5.43848 18.1103 5.5292 18.291 5.70996C18.4716 5.89061 18.5624 6.12031 18.5625 6.40039C18.5625 6.6807 18.4717 6.91105 18.291 7.0918L13.3818 12.001L13.3906 12.0098L18.291 16.9092C18.4717 17.0899 18.5625 17.3203 18.5625 17.6006C18.5625 17.8809 18.4718 18.1112 18.291 18.292C18.1103 18.4728 17.88 18.5635 17.5996 18.5635C17.3193 18.5634 17.0889 18.4727 16.9082 18.292L12.0088 13.3916L12 13.3828L7.09082 18.292C6.91007 18.4727 6.67972 18.5635 6.39941 18.5635C6.11934 18.5634 5.88963 18.4725 5.70898 18.292C5.52822 18.1112 5.4375 17.8809 5.4375 17.6006C5.43754 17.3203 5.52827 17.0899 5.70898 16.9092L10.6172 12.001L10.6084 11.9922L5.70898 7.0918C5.52822 6.91104 5.4375 6.68075 5.4375 6.40039C5.43758 6.12021 5.52831 5.89064 5.70898 5.70996C5.88966 5.52928 6.11923 5.43856 6.39941 5.43848C6.67977 5.43848 6.91006 5.5292 7.09082 5.70996L11.9912 10.6094L12 10.6182L16.9082 5.70996C17.0889 5.52924 17.3193 5.43852 17.5996 5.43848Z" fill="white" stroke="white" stroke-width="0.025"/>
</svg>
