<svg width="17" height="17" viewBox="0 0 17 17" fill="none" xmlns="http://www.w3.org/2000/svg">
<path d="M8.49998 15.2678H16M1 15.2678H2.39545C2.8031 15.2678 3.00693 15.2678 3.19874 15.2217C3.3688 15.1809 3.53138 15.1135 3.6805 15.0222C3.84869 14.9191 3.99282 14.775 4.28107 14.4867L14.75 4.01777C15.4404 3.32741 15.4404 2.20812 14.75 1.51777C14.0597 0.827411 12.9404 0.827412 12.25 1.51777L1.78105 11.9867C1.4928 12.275 1.34867 12.4191 1.2456 12.5873C1.15422 12.7364 1.08688 12.899 1.04605 13.069C1 13.2609 1 13.4647 1 13.8723V15.2678Z" stroke="white" stroke-width="2" stroke-linecap="round" stroke-linejoin="round"/>
</svg>
