<svg width="32" height="32" viewBox="0 0 32 32" fill="none" xmlns="http://www.w3.org/2000/svg">
<path d="M14.0077 32.0006H11.0992L8.22754 27.9995C9.16585 25.4003 10.7964 24.4395 10.7964 24.4395H17.6892L14.0077 32.0006Z" fill="#B690E0"/>
<path d="M16.0789 27.7466L17.6891 24.4395H10.7962C10.7962 24.4395 10.1059 24.8468 9.36523 25.847C11.3292 27.0288 13.6378 27.6885 16.0789 27.7466Z" fill="#8F5CC7"/>
<path d="M24.6366 27.9996L21.765 32.0007H14.0068V30.3721C14.0068 28.9308 14.5796 27.5482 15.5986 26.5291L17.6883 24.4395H22.0679C22.0678 24.4395 23.6984 25.4004 24.6366 27.9996Z" fill="#8748CC"/>
<path d="M11.0991 28.7349V31.9992H7.58105C7.58105 30.368 7.84774 29.0494 8.22743 27.998L11.0991 28.7349Z" fill="#FED2A4"/>
<path d="M25.2837 31.9992H21.7656V28.7349L24.6373 27.998C25.0169 29.0494 25.2837 30.368 25.2837 31.9992Z" fill="#FED2A4"/>
<path d="M7.21895 9.86556C4.49463 9.86556 2.28613 7.65706 2.28613 4.93275C2.28613 2.20844 4.49463 0 7.21895 0C9.30482 0 11.0883 1.29469 11.8097 3.12431L7.21895 9.86556Z" fill="#303646"/>
<path d="M10.7966 5.48764C12.1021 5.48764 13.1605 4.42927 13.1605 3.1237C13.1605 1.81814 12.1021 0.759766 10.7966 0.759766C9.49099 0.759766 8.43262 1.81814 8.43262 3.1237C8.43262 4.42927 9.49099 5.48764 10.7966 5.48764Z" fill="#B690E0"/>
<path d="M25.6457 9.86563C28.37 9.86563 30.5785 7.65713 30.5785 4.93281C30.5785 2.2085 28.37 0 25.6457 0C22.9214 0 20.7129 2.2085 20.7129 4.93281C20.7129 7.65713 22.9214 9.86563 25.6457 9.86563Z" fill="#303646"/>
<path d="M22.068 5.48764C23.3736 5.48764 24.432 4.42927 24.432 3.1237C24.432 1.81814 23.3736 0.759766 22.068 0.759766C20.7625 0.759766 19.7041 1.81814 19.7041 3.1237C19.7041 4.42927 20.7625 5.48764 22.068 5.48764Z" fill="#B690E0"/>
<path d="M9.71249 2.16227C9.71249 1.70514 9.82249 1.27395 10.0164 0.892578C9.0943 1.21495 8.43262 2.09202 8.43262 3.12408C8.43262 4.42964 9.49099 5.48795 10.7965 5.48795C11.3617 5.48795 11.8805 5.28927 12.2872 4.95833C10.8458 4.84045 9.71249 3.63414 9.71249 2.16227Z" fill="#8748CC"/>
<path d="M21.5137 3.11914C21.5137 2.15902 22.0422 1.32277 22.8239 0.883953C22.5864 0.803828 22.3324 0.759766 22.068 0.759766C20.7624 0.759766 19.7041 1.81814 19.7041 3.12364C19.7041 4.42914 20.7625 5.48752 22.068 5.48752C22.3362 5.48752 22.5936 5.44227 22.8339 5.35995C22.0467 4.92283 21.5137 4.08339 21.5137 3.11914Z" fill="#8748CC"/>
<path d="M2.92676 15.5664C2.92676 8.11923 8.98545 2.06055 16.4326 2.06055C23.8798 2.06055 29.9384 8.11923 29.9384 15.5664H2.92676Z" fill="#475066"/>
<path d="M27.498 18.5311C29.1353 18.5311 30.4627 17.2037 30.4627 15.5663C30.4627 13.9289 29.1353 12.6016 27.498 12.6016C25.8606 12.6016 24.5332 13.9289 24.5332 15.5663C24.5332 17.2037 25.8606 18.5311 27.498 18.5311Z" fill="#FFBD86"/>
<path d="M8.05601 13.2595C8.05601 8.94361 9.99276 5.08061 13.0439 2.49023C7.23145 3.99761 2.92676 9.28817 2.92676 15.5654H8.24444C8.12113 14.8149 8.05601 14.0449 8.05601 13.2595Z" fill="#303646"/>
<path d="M22.0684 24.4395H17.6888L15.5992 26.5291C15.2612 26.8671 14.9735 27.2458 14.7383 27.6526C15.2945 27.7175 15.86 27.7511 16.4322 27.7511C19.0037 27.7511 21.4409 27.0857 23.4994 25.8469C22.7587 24.8468 22.0684 24.4395 22.0684 24.4395Z" fill="#5C2D91"/>
<path d="M26.7645 11.9923C26.301 10.6528 25.0362 9.75656 23.6188 9.75656H19.7442C19.1093 9.75656 18.5003 9.50431 18.0514 9.05537L17.2919 8.29575C16.8168 7.82069 16.0466 7.82069 15.5715 8.29575L14.812 9.05537C14.363 9.50431 13.7541 9.75656 13.1192 9.75656H9.2446C7.82716 9.75656 6.56235 10.6528 6.09891 11.9923C5.71148 13.1121 5.50098 14.3143 5.50098 15.5658C5.50098 21.6028 10.3949 25.8189 16.4318 25.8189C22.4687 25.8189 27.3626 21.6027 27.3626 15.5658C27.3625 14.3143 27.1519 13.1121 26.7645 11.9923Z" fill="#FED2A4"/>
<path d="M15.6707 25.7961C11.1462 23.4428 8.0558 18.7127 8.0558 13.2603C8.0558 12.0835 8.20068 10.9406 8.47193 9.84766C7.38368 10.1069 6.47655 10.9031 6.09956 11.9927C6.02468 12.2091 5.95655 12.4287 5.89518 12.651C5.7263 12.619 5.54999 12.6014 5.36612 12.6014C3.72874 12.6014 2.40137 13.9288 2.40137 15.5662C2.40137 17.2036 3.72874 18.531 5.36612 18.531C5.55512 18.531 5.73618 18.5125 5.9093 18.4787C7.13555 22.6889 10.9992 25.5178 15.6707 25.7961Z" fill="#FFBD86"/>
<path d="M9.96668 19.0106C11.2842 19.0106 12.3523 18.16 12.3523 17.1108C12.3523 16.0615 11.2842 15.2109 9.96668 15.2109C8.64914 15.2109 7.58105 16.0615 7.58105 17.1108C7.58105 18.16 8.64914 19.0106 9.96668 19.0106Z" fill="#FD8B9B"/>
<path d="M22.8973 19.0106C24.2149 19.0106 25.283 18.16 25.283 17.1108C25.283 16.0615 24.2149 15.2109 22.8973 15.2109C21.5798 15.2109 20.5117 16.0615 20.5117 17.1108C20.5117 18.16 21.5798 19.0106 22.8973 19.0106Z" fill="#FD8B9B"/>
<path d="M12.4922 15.5251C12.2255 15.5251 12.0093 15.3089 12.0093 15.0422C12.0093 14.6823 11.7166 14.3896 11.3567 14.3896C10.9968 14.3896 10.704 14.6823 10.704 15.0422C10.704 15.3089 10.4878 15.5251 10.2212 15.5251C9.95447 15.5251 9.73828 15.3089 9.73828 15.0422C9.73828 14.1498 10.4643 13.4238 11.3567 13.4238C12.2491 13.4238 12.9751 14.1498 12.9751 15.0422C12.9752 15.3089 12.759 15.5251 12.4922 15.5251Z" fill="#303646"/>
<path d="M22.6426 15.5251C22.3759 15.5251 22.1597 15.3089 22.1597 15.0422C22.1597 14.6823 21.867 14.3896 21.507 14.3896C21.1472 14.3896 20.8544 14.6823 20.8544 15.0422C20.8544 15.3089 20.6382 15.5251 20.3715 15.5251C20.1049 15.5251 19.8887 15.3089 19.8887 15.0422C19.8887 14.1498 20.6147 13.4238 21.507 13.4238C22.3995 13.4238 23.1255 14.1498 23.1255 15.0422C23.1255 15.3089 22.9093 15.5251 22.6426 15.5251Z" fill="#303646"/>
<path d="M16.4326 17.4013C15.8314 17.4013 15.2597 17.1409 14.864 16.6869C14.6887 16.4859 14.7097 16.1809 14.9107 16.0056C15.1117 15.8304 15.4168 15.8513 15.592 16.0524C15.8042 16.2959 16.1106 16.4355 16.4325 16.4355C16.7545 16.4355 17.0607 16.2959 17.273 16.0524C17.4482 15.8513 17.7532 15.8304 17.9543 16.0056C18.1553 16.1809 18.1763 16.4859 18.0011 16.6869C17.6055 17.1409 17.0338 17.4013 16.4326 17.4013Z" fill="#303646"/>
<path d="M4.5777 9.09927L8.81739 4.41677L8.15377 4.07227L4.31445 7.1862L4.5777 9.09927Z" fill="#303646"/>
</svg>
