<svg width="19" height="19" viewBox="0 0 19 19" fill="none" xmlns="http://www.w3.org/2000/svg">
<path d="M5.95943 1.7164C5.56341 1.32039 5.3654 1.12238 5.13707 1.04819C4.93623 0.98293 4.71988 0.98293 4.51904 1.04819C4.29071 1.12238 4.0927 1.32039 3.69668 1.7164L1.71678 3.6963C1.32077 4.09232 1.12276 4.29033 1.04857 4.51865C0.983313 4.7195 0.983313 4.93585 1.04857 5.13669C1.12276 5.36502 1.32077 5.56303 1.71678 5.95904L3.69668 7.93894C4.0927 8.33496 4.29071 8.53297 4.3649 8.7613C4.43016 8.96214 4.43016 9.17849 4.3649 9.37933C4.29071 9.60766 4.0927 9.80567 3.69668 10.2017L1.71678 12.1816C1.32077 12.5776 1.12276 12.7756 1.04857 13.0039C0.983313 13.2048 0.983312 13.4211 1.04857 13.622C1.12276 13.8503 1.32077 14.0483 1.71678 14.4443L3.69668 16.4242C4.0927 16.8202 4.29071 17.0182 4.51904 17.0924C4.71988 17.1577 4.93623 17.1577 5.13707 17.0924C5.3654 17.0182 5.56341 16.8202 5.95943 16.4242L7.93932 14.4443C8.33534 14.0483 8.53335 13.8503 8.76168 13.7761C8.96252 13.7109 9.17887 13.7109 9.37971 13.7761C9.60804 13.8503 9.80605 14.0483 10.2021 14.4443L12.182 16.4242C12.578 16.8202 12.776 17.0182 13.0043 17.0924C13.2052 17.1577 13.4215 17.1577 13.6224 17.0924C13.8507 17.0182 14.0487 16.8202 14.4447 16.4242L16.4246 14.4443C16.8206 14.0483 17.0186 13.8503 17.0928 13.622C17.1581 13.4211 17.1581 13.2048 17.0928 13.0039C17.0186 12.7756 16.8206 12.5776 16.4246 12.1816L14.4447 10.2017C14.0487 9.80567 13.8507 9.60766 13.7765 9.37933C13.7112 9.17849 13.7112 8.96214 13.7765 8.7613C13.8507 8.53297 14.0487 8.33496 14.4447 7.93894L16.4246 5.95904C16.8206 5.56303 17.0186 5.36502 17.0928 5.13669C17.1581 4.93585 17.1581 4.7195 17.0928 4.51866C17.0186 4.29033 16.8206 4.09232 16.4246 3.6963L14.4447 1.7164C14.0487 1.32039 13.8507 1.12238 13.6224 1.04819C13.4215 0.98293 13.2052 0.98293 13.0043 1.04819C12.776 1.12238 12.578 1.32039 12.182 1.7164L10.2021 3.6963C9.80605 4.09232 9.60804 4.29033 9.37971 4.36451C9.17887 4.42977 8.96252 4.42977 8.76168 4.36451C8.53335 4.29033 8.33534 4.09232 7.93932 3.6963L5.95943 1.7164Z" stroke="white" stroke-width="2" stroke-linecap="round" stroke-linejoin="round"/>
</svg>
