<svg width="28" height="28" viewBox="0 0 28 28" fill="none" xmlns="http://www.w3.org/2000/svg">
<path d="M2.3335 14.0002L13.5828 19.6248C13.7358 19.7013 13.8123 19.7396 13.8926 19.7546C13.9637 19.768 14.0366 19.768 14.1077 19.7546C14.188 19.7396 14.2645 19.7013 14.4176 19.6248L25.6668 14.0002M2.3335 19.8335L13.5828 25.4581C13.7358 25.5346 13.8123 25.5729 13.8926 25.588C13.9637 25.6013 14.0366 25.6013 14.1077 25.588C14.188 25.5729 14.2645 25.5346 14.4176 25.4581L25.6668 19.8335M2.3335 8.16682L13.5828 2.54219C13.7358 2.46567 13.8123 2.42741 13.8926 2.41235C13.9637 2.39901 14.0366 2.39901 14.1077 2.41235C14.188 2.42741 14.2645 2.46567 14.4176 2.54219L25.6668 8.16682L14.4176 13.7915C14.2645 13.868 14.188 13.9062 14.1077 13.9213C14.0366 13.9346 13.9637 13.9346 13.8926 13.9213C13.8123 13.9062 13.7358 13.868 13.5828 13.7915L2.3335 8.16682Z" stroke="#4B5057" stroke-width="2" stroke-linecap="round" stroke-linejoin="round"/>
</svg>
