<svg width="26" height="26" viewBox="0 0 26 26" fill="none" xmlns="http://www.w3.org/2000/svg">
<path d="M12.6667 16.1667C14.5997 16.1667 16.1667 14.5997 16.1667 12.6667C16.1667 10.7337 14.5997 9.16667 12.6667 9.16667C10.7337 9.16667 9.16667 10.7337 9.16667 12.6667C9.16667 14.5997 10.7337 16.1667 12.6667 16.1667Z" stroke="#4B5057" stroke-width="2" stroke-linecap="round" stroke-linejoin="round"/>
<path d="M20.5152 15.8485C20.374 16.1684 20.3319 16.5232 20.3942 16.8673C20.4566 17.2113 20.6206 17.5288 20.8652 17.7788L20.9288 17.8424C21.126 18.0394 21.2825 18.2734 21.3892 18.5309C21.496 18.7884 21.5509 19.0644 21.5509 19.3432C21.5509 19.6219 21.496 19.898 21.3892 20.1555C21.2825 20.413 21.126 20.6469 20.9288 20.8439C20.7318 21.0412 20.4978 21.1976 20.2403 21.3044C19.9828 21.4111 19.7068 21.4661 19.428 21.4661C19.1493 21.4661 18.8732 21.4111 18.6157 21.3044C18.3582 21.1976 18.1243 21.0412 17.9273 20.8439L17.8636 20.7803C17.6137 20.5358 17.2962 20.3718 16.9521 20.3094C16.6081 20.247 16.2532 20.2891 15.9333 20.4303C15.6196 20.5647 15.3521 20.788 15.1637 21.0725C14.9752 21.3571 14.8741 21.6905 14.8727 22.0318V22.2121C14.8727 22.7747 14.6492 23.3142 14.2514 23.712C13.8536 24.1099 13.3141 24.3333 12.7515 24.3333C12.1889 24.3333 11.6494 24.1099 11.2516 23.712C10.8538 23.3142 10.6303 22.7747 10.6303 22.2121V22.1167C10.6221 21.7656 10.5085 21.4251 10.3042 21.1395C10.0999 20.8539 9.81442 20.6364 9.48485 20.5152C9.16495 20.374 8.8101 20.3319 8.46604 20.3942C8.12199 20.4566 7.80451 20.6206 7.55455 20.8652L7.49091 20.9288C7.29391 21.126 7.05996 21.2825 6.80245 21.3892C6.54494 21.496 6.26891 21.5509 5.99015 21.5509C5.71139 21.5509 5.43537 21.496 5.17785 21.3892C4.92034 21.2825 4.6864 21.126 4.48939 20.9288C4.29217 20.7318 4.13571 20.4978 4.02896 20.2403C3.92222 19.9828 3.86727 19.7068 3.86727 19.428C3.86727 19.1493 3.92222 18.8732 4.02896 18.6157C4.13571 18.3582 4.29217 18.1243 4.48939 17.9273L4.55303 17.8636C4.79754 17.6137 4.96156 17.2962 5.02394 16.9521C5.08633 16.6081 5.04421 16.2532 4.90303 15.9333C4.76859 15.6196 4.54535 15.3521 4.2608 15.1637C3.97625 14.9752 3.6428 14.8741 3.30152 14.8727H3.12121C2.55863 14.8727 2.01909 14.6492 1.62129 14.2514C1.22348 13.8536 1 13.3141 1 12.7515C1 12.1889 1.22348 11.6494 1.62129 11.2516C2.01909 10.8538 2.55863 10.6303 3.12121 10.6303H3.21667C3.56772 10.6221 3.90819 10.5085 4.1938 10.3042C4.47942 10.0999 4.69697 9.81442 4.81818 9.48485C4.95936 9.16495 5.00148 8.8101 4.9391 8.46604C4.87671 8.12199 4.71269 7.80451 4.46818 7.55455L4.40455 7.49091C4.20732 7.29391 4.05086 7.05996 3.94412 6.80245C3.83737 6.54494 3.78242 6.26891 3.78242 5.99015C3.78242 5.71139 3.83737 5.43537 3.94412 5.17785C4.05086 4.92034 4.20732 4.6864 4.40455 4.48939C4.60155 4.29217 4.83549 4.13571 5.09301 4.02896C5.35052 3.92222 5.62654 3.86727 5.9053 3.86727C6.18406 3.86727 6.46009 3.92222 6.7176 4.02896C6.97511 4.13571 7.20906 4.29217 7.40606 4.48939L7.4697 4.55303C7.71966 4.79754 8.03714 4.96156 8.38119 5.02394C8.72525 5.08633 9.08011 5.04421 9.4 4.90303H9.48485C9.79854 4.76859 10.0661 4.54535 10.2545 4.2608C10.443 3.97625 10.5441 3.6428 10.5455 3.30152V3.12121C10.5455 2.55863 10.7689 2.01909 11.1667 1.62129C11.5645 1.22348 12.1041 1 12.6667 1C13.2292 1 13.7688 1.22348 14.1666 1.62129C14.5644 2.01909 14.7879 2.55863 14.7879 3.12121V3.21667C14.7892 3.55796 14.8904 3.8914 15.0788 4.17595C15.2673 4.4605 15.5348 4.68374 15.8485 4.81818C16.1684 4.95936 16.5232 5.00148 16.8673 4.9391C17.2113 4.87671 17.5288 4.71269 17.7788 4.46818L17.8424 4.40455C18.0394 4.20732 18.2734 4.05086 18.5309 3.94412C18.7884 3.83737 19.0644 3.78242 19.3432 3.78242C19.6219 3.78242 19.898 3.83737 20.1555 3.94412C20.413 4.05086 20.6469 4.20732 20.8439 4.40455C21.0412 4.60155 21.1976 4.83549 21.3044 5.09301C21.4111 5.35052 21.4661 5.62654 21.4661 5.9053C21.4661 6.18406 21.4111 6.46009 21.3044 6.7176C21.1976 6.97511 21.0412 7.20906 20.8439 7.40606L20.7803 7.4697C20.5358 7.71966 20.3718 8.03714 20.3094 8.38119C20.247 8.72525 20.2891 9.08011 20.4303 9.4V9.48485C20.5647 9.79854 20.788 10.0661 21.0725 10.2545C21.3571 10.443 21.6905 10.5441 22.0318 10.5455H22.2121C22.7747 10.5455 23.3142 10.7689 23.712 11.1667C24.1099 11.5645 24.3333 12.1041 24.3333 12.6667C24.3333 13.2292 24.1099 13.7688 23.712 14.1666C23.3142 14.5644 22.7747 14.7879 22.2121 14.7879H22.1167C21.7754 14.7892 21.4419 14.8904 21.1574 15.0788C20.8728 15.2673 20.6496 15.5348 20.5152 15.8485Z" stroke="#4B5057" stroke-width="2" stroke-linecap="round" stroke-linejoin="round"/>
</svg>
