<svg width="28" height="28" viewBox="0 0 28 28" fill="none" xmlns="http://www.w3.org/2000/svg">
<path d="M18.6673 10.5007V7.00065C18.6673 4.42332 16.5779 2.33398 14.0006 2.33398C11.4233 2.33398 9.33393 4.42332 9.33393 7.00065V10.5006M4.19126 12.0779L3.49126 19.5446C3.29223 21.6676 3.19272 22.7291 3.54499 23.549C3.85444 24.2692 4.39673 24.8647 5.08495 25.2401C5.86837 25.6673 6.93452 25.6673 9.06682 25.6673H18.9344C21.0667 25.6673 22.1328 25.6673 22.9162 25.2401C23.6045 24.8647 24.1467 24.2692 24.4562 23.549C24.8085 22.7291 24.709 21.6676 24.5099 19.5446L23.8099 12.0779C23.6419 10.2852 23.5578 9.38886 23.1547 8.71118C22.7996 8.11433 22.275 7.63661 21.6476 7.3388C20.9352 7.00065 20.035 7.00065 18.2344 7.00065L9.76682 7.00065C7.96623 7.00065 7.06594 7.00065 6.35358 7.3388C5.7262 7.63661 5.2016 8.11433 4.84653 8.71117C4.44337 9.38886 4.35933 10.2852 4.19126 12.0779Z" stroke="#4B5057" stroke-width="2" stroke-linecap="round" stroke-linejoin="round"/>
</svg>
